<svg width="428" height="156" viewBox="0 0 428 156" fill="none" xmlns="http://www.w3.org/2000/svg">
<circle cx="78" cy="78" r="70" fill="#84CC16"/>
<circle cx="78" cy="78" r="76" stroke="#84CC16" stroke-width="4"/>
<path fill-rule="evenodd" clip-rule="evenodd" d="M116 38L86.0001 121H64.0001L33 82H55.0001L70.5001 101L93.0001 38H116Z" fill="white"/>
<path d="M186.467 102.933L187.106 99.4889L183.604 99.3875L165.746 98.8705L163.598 98.8083L162.848 100.822C161.905 103.353 159.341 105.114 155.08 105.114C152.029 105.114 149.834 104.117 148.396 102.617C147.359 101.535 146.576 100.046 146.213 98.1476H183.716H186.716V95.1476V90.2953C186.716 79.6165 183.453 71.0007 177.555 65.0463C171.659 59.0949 163.439 56.1135 154.125 56.1135C144.186 56.1135 135.787 59.5369 129.88 65.7339C123.987 71.9158 120.818 80.5993 120.818 90.6931C120.818 101.074 123.93 109.762 129.926 115.864C135.928 121.972 144.489 125.153 154.722 125.153C171.742 125.153 183.901 116.77 186.467 102.933ZM162.043 80.8522H146.737C148.029 78.0495 150.871 76.1533 154.523 76.1533C158.18 76.1533 160.909 77.9894 162.043 80.8522Z" fill="#84CC16" stroke="white" stroke-width="6"/>
<path d="M194.352 121H213.801V84.8465C213.801 78.8011 217.341 74.9431 222.432 74.9431C227.483 74.9431 230.824 78.4829 230.824 84.1306V121H249.517V84.5284C249.517 78.6818 252.739 74.9431 258.108 74.9431C263.04 74.9431 266.54 78.2443 266.54 84.3295V121H285.989V79.875C285.989 66.9488 278.034 59.1136 266.5 59.1136C257.472 59.1136 250.352 63.8465 248.085 71.125H247.449C245.818 63.8068 239.256 59.1136 230.784 59.1136C222.432 59.1136 216.068 63.6875 213.523 71.125H212.847V59.909H194.352V121Z" fill="#84CC16"/>
<path d="M298.04 121H317.29V111.097H317.886C320.352 116.744 325.841 121.875 335.068 121.875C348.591 121.875 359.489 111.295 359.489 90.4943C359.489 68.9375 347.955 59.1136 335.188 59.1136C325.523 59.1136 320.233 64.7613 317.886 70.3693H317.489V39.5454H298.04V121ZM317.091 90.4545C317.091 80.4715 321.227 74.3068 328.347 74.3068C335.545 74.3068 339.523 80.6306 339.523 90.4545C339.523 100.318 335.545 106.722 328.347 106.722C321.227 106.722 317.091 100.358 317.091 90.4545Z" fill="#84CC16"/>
<path d="M398.237 122.153C414.266 122.153 424.805 114.398 427.033 102.386L409.175 101.869C407.663 105.926 403.686 108.114 398.595 108.114C391.118 108.114 386.504 103.142 386.504 95.6647V95.1477H427.232V90.2954C427.232 70.1704 414.982 59.1136 397.641 59.1136C379.186 59.1136 367.334 71.7613 367.334 90.6931C367.334 110.261 379.027 122.153 398.237 122.153ZM386.504 83.8522C386.783 77.767 391.595 73.1534 398.038 73.1534C404.442 73.1534 409.055 77.6079 409.135 83.8522H386.504Z" fill="#84CC16"/>
</svg>
